<svg width="15" height="18" viewBox="0 0 15 18" fill="none" xmlns="http://www.w3.org/2000/svg">
<path d="M13.0241 0H1.44712C0.651203 0 0.00723558 0.998308 0.00723558 2.21846L0 15.5292C0 16.7494 0.651203 17.7477 1.44712 17.7477H13.0241C13.82 17.7477 14.4712 16.7494 14.4712 15.5292V2.21846C14.4712 0.998308 13.82 0 13.0241 0ZM12.7346 4.71423L7.61907 9.61703C7.38753 9.83888 7.08364 9.83888 6.8521 9.61703L1.73654 4.71423C1.55565 4.53675 1.44712 4.23726 1.44712 3.91559C1.44712 3.1724 1.97532 2.72871 2.38774 3.11694L7.23559 7.76462L12.0834 3.11694C12.4959 2.72871 13.0241 3.1724 13.0241 3.91559C13.0241 4.23726 12.9155 4.53675 12.7346 4.71423Z" fill="#FFFDFD"/>
</svg>
